<svg xmlns="http://www.w3.org/2000/svg" viewBox="0 0 512 512" role="img" aria-labelledby="title description"><title id="title">Follow Your Heart strategy logo for C#</title><desc id="description">A heart contains a live market pulse.</desc><style>:root{color-scheme:light dark;--p:hsl(267 46% 35%);--pl:hsl(267 48% 69%);--ps:hsl(267 50% 23%);--s:hsl(351 58% 43%);--sl:hsl(351 67% 70%);--ss:hsl(351 58% 27%);--a:hsl(147 42% 49%);--pos:hsl(149 45% 39%);--neg:hsl(4 51% 50%);--v:hsl(295 45% 45%);--n:#26383a;--pale:#cbd7d4;}.language-mark{fill:#17323d;opacity:.075}.python-upper{fill:#2874a6;opacity:.075}.python-lower{fill:#aa8108;opacity:.075}@media(prefers-color-scheme:dark){:root{--p:hsl(267 52% 67%);--pl:hsl(267 57% 81%);--ps:hsl(267 43% 49%);--s:hsl(351 67% 66%);--sl:hsl(351 76% 80%);--ss:hsl(351 52% 45%);--a:hsl(147 53% 70%);--pos:hsl(149 48% 61%);--neg:hsl(4 72% 69%);--v:hsl(295 56% 68%);--n:#edf3f1;--pale:#70817c;}.language-mark{fill:#edf6f3;opacity:.09}.python-upper{fill:#7ec5ed;opacity:.09}.python-lower{fill:#f1ca50;opacity:.09}}</style><g class="language-mark" aria-hidden="true"><path d="M327 108 A180 210 0 1 0 327 404 L278 348 A110 130 0 1 1 278 164 Z"/><path d="M342 54 L397 54 L367 458 L312 458 Z M432 54 L487 54 L457 458 L402 458 Z M301 172 L499 172 L493 232 L295 232 Z M289 285 L487 285 L481 345 L283 345 Z"/></g><g aria-hidden="true" stroke-linecap="round" stroke-linejoin="round"><path fill="var(--neg)" d="M256 444 C222 399 91 318 91 191 C91 116 147 72 205 72 C235 72 256 92 256 121 C256 92 277 72 307 72 C365 72 421 116 421 191 C421 318 290 399 256 444 Z"/><path fill="none" stroke="var(--n)" stroke-width="18" d="M121 247 H190 L217 188 L255 319 L292 213 L320 270 H392"/><path fill="var(--sl)" d="M139 145 C165 112 202 110 223 137 C182 139 156 158 139 190 Z"/></g></svg>
