<svg xmlns="http://www.w3.org/2000/svg" viewBox="0 0 512 512" role="img" aria-labelledby="title description"><title id="title">Ema Macd Rsi strategy logo for Python</title><desc id="description">Two market roads cross on a bridge carrying a crossover waves.</desc><style>:root{color-scheme:light dark;--p:#3c5482;--pl:#8da1ca;--ps:#2a3b5b;--s:#b74f78;--sl:#e58ead;--ss:#803851;--a:#dda63c;--pos:#37896b;--neg:#bc4e4c;--v:#765ca5;--n:#2a3740;--pale:#ced5df}.language-mark{fill:#17323d;opacity:.07}.python-upper{fill:#2874a6;opacity:.07}.python-lower{fill:#aa8108;opacity:.07}@media(prefers-color-scheme:dark){:root{--p:#748dc6;--pl:#b5c4e5;--ps:#4c6598;--s:#e578a3;--sl:#ffb0ca;--ss:#aa4d72;--a:#f2c860;--pos:#66c49d;--neg:#f17772;--v:#aa96d8;--n:#eef2f5;--pale:#758092}.language-mark{fill:#edf6f3;opacity:.08}.python-upper{fill:#7ec5ed;opacity:.08}.python-lower{fill:#f1ca50;opacity:.08}}</style><g aria-hidden="true"><path class="python-upper" d="M139 53 C139 26 161 4 188 4 H293 C323 4 347 28 347 58 V157 C347 187 323 211 293 211 H212 C183 211 159 235 159 264 V287 H95 C65 287 41 263 41 233 V194 C41 164 65 140 95 140 H139 Z"/><path class="python-lower" d="M139 53 C139 26 161 4 188 4 H293 C323 4 347 28 347 58 V157 C347 187 323 211 293 211 H212 C183 211 159 235 159 264 V287 H95 C65 287 41 263 41 233 V194 C41 164 65 140 95 140 H139 Z" transform="rotate(180 256 256)"/></g><g aria-hidden="true" stroke-linecap="round" stroke-linejoin="round"><path fill="none" stroke="var(--pl)" stroke-width="42" d="M39 407 C165 391 213 97 471 87"/><path fill="none" stroke="var(--sl)" stroke-width="42" d="M39 92 C178 104 240 390 471 415"/><path fill="var(--n)" d="M209 216 H303 V296 H209 Z"/><path fill="var(--a)" d="M231 234 H281 V278 H231 Z"/><g transform="translate(146 144) scale(0.500)" ><path fill="var(--ps)" d="M13 165 H205 V187 H13 Z"/><path fill="var(--pl)" d="M24 112 H51 V165 H24 Z M60 73 H87 V165 H60 Z M96 129 H123 V165 H96 Z"/><path fill="var(--sl)" d="M132 92 H159 V165 H132 Z M168 45 H195 V165 H168 Z"/><path fill="none" stroke="var(--p)" stroke-width="13" d="M12 113 C62 62 99 73 134 121 C158 154 181 109 207 62"/><path fill="none" stroke="var(--a)" stroke-width="10" d="M12 143 C66 100 102 109 137 141 C162 164 184 131 207 91"/></g></g></svg>
