<svg xmlns="http://www.w3.org/2000/svg" viewBox="0 0 512 512" role="img" aria-labelledby="title description"><title id="title">Channels Envelope Cross Strategy logo for C#</title><desc id="description">EMA and MA cross on a concrete bridge and release the trade.</desc><style>:root{color-scheme:light dark;--p:hsl(103 54% 39%);--pl:hsl(103 62% 72%);--ps:hsl(103 54% 24%);--s:hsl(290 67% 43%);--sl:hsl(290 75% 72%);--ss:hsl(290 67% 27%);--a:hsl(146 62% 48%);--pos:hsl(148 52% 38%);--neg:hsl(5 66% 51%);--n:#243538;--pale:#cbd7d4}.language-mark{fill:#17323d;opacity:.115}.python-upper{fill:#2874a6;opacity:.115}.python-lower{fill:#aa8108;opacity:.115}@media(prefers-color-scheme:dark){:root{--p:hsl(103 59% 67%);--pl:hsl(103 64% 82%);--ps:hsl(103 50% 49%);--s:hsl(290 73% 66%);--sl:hsl(290 79% 81%);--ss:hsl(290 64% 45%);--a:hsl(146 68% 70%);--pos:hsl(148 56% 62%);--neg:hsl(5 78% 70%);--n:#edf3f1;--pale:#70817c}.language-mark{fill:#edf6f3;opacity:.14}.python-upper{fill:#7ec5ed;opacity:.14}.python-lower{fill:#f1ca50;opacity:.14}}</style><g class="language-mark" aria-hidden="true"><path d="M327 108 A180 210 0 1 0 327 404 L278 348 A110 130 0 1 1 278 164 Z"/><path d="M342 54 L397 54 L367 458 L312 458 Z M432 54 L487 54 L457 458 L402 458 Z M301 172 L499 172 L493 232 L295 232 Z M289 285 L487 285 L481 345 L283 345 Z"/></g><g aria-hidden="true" stroke-linecap="round" stroke-linejoin="round"><path fill="none" stroke="var(--pl)" stroke-width="42" d="M45 382 C155 360 216 114 466 101"/><path fill="none" stroke="var(--sl)" stroke-width="42" d="M45 112 C180 128 232 370 466 400"/><path fill="var(--n)" d="M207 211 H305 V305 H207 Z"/><path fill="var(--a)" d="M229 233 H283 V283 H229 Z"/><text x="122" y="82" fill="var(--n)" font-family="Arial,sans-serif" font-size="25" font-weight="700" text-anchor="middle">EMA</text><text x="390" y="82" fill="var(--n)" font-family="Arial,sans-serif" font-size="25" font-weight="700" text-anchor="middle">MA</text><path fill="var(--pos)" d="M390 275 H462 V246 L500 290 L462 334 V305 H390 Z"/></g></svg>
