<svg xmlns="http://www.w3.org/2000/svg" viewBox="0 0 512 512" role="img" aria-labelledby="title description"><title id="title">Pipsover logo for Python</title><desc id="description">A Chaikin extreme stretches price away from SMA 20 before snapping back.</desc><style>:root{color-scheme:light dark;--p:hsl(221 51% 39%);--pl:hsl(221 59% 72%);--ps:hsl(221 51% 24%);--s:hsl(331 64% 43%);--sl:hsl(331 72% 72%);--ss:hsl(331 64% 27%);--a:hsl(52 62% 48%);--pos:hsl(148 52% 38%);--neg:hsl(5 66% 51%);--n:#243538;--pale:#cbd7d4}.language-mark{fill:#17323d;opacity:.115}.python-upper{fill:#2874a6;opacity:.115}.python-lower{fill:#aa8108;opacity:.115}@media(prefers-color-scheme:dark){:root{--p:hsl(221 56% 67%);--pl:hsl(221 61% 82%);--ps:hsl(221 47% 49%);--s:hsl(331 70% 66%);--sl:hsl(331 76% 81%);--ss:hsl(331 61% 45%);--a:hsl(52 68% 70%);--pos:hsl(148 56% 62%);--neg:hsl(5 78% 70%);--n:#edf3f1;--pale:#70817c}.language-mark{fill:#edf6f3;opacity:.14}.python-upper{fill:#7ec5ed;opacity:.14}.python-lower{fill:#f1ca50;opacity:.14}}</style><g aria-hidden="true"><path class="python-upper" d="M139 53 C139 26 161 4 188 4 H293 C323 4 347 28 347 58 V157 C347 187 323 211 293 211 H212 C183 211 159 235 159 264 V287 H95 C65 287 41 263 41 233 V194 C41 164 65 140 95 140 H139 Z"/><path class="python-lower" d="M139 53 C139 26 161 4 188 4 H293 C323 4 347 28 347 58 V157 C347 187 323 211 293 211 H212 C183 211 159 235 159 264 V287 H95 C65 287 41 263 41 233 V194 C41 164 65 140 95 140 H139 Z" transform="rotate(180 256 256)"/></g><g aria-hidden="true" stroke-linecap="round" stroke-linejoin="round"><path fill="var(--pl)" stroke="var(--ps)" stroke-width="10" d="M43 84 H207 V216 H43 Z"/><path fill="none" stroke="var(--neg)" stroke-width="16" d="M69 172 A56 56 0 0 1 181 172"/><path stroke="var(--n)" stroke-width="11" d="M125 172 L79 132"/><circle cx="125" cy="172" r="15" fill="var(--n)"/><text x="125" y="116" fill="var(--n)" font-family="Arial,sans-serif" font-size="20" font-weight="700" text-anchor="middle">CHAIKIN</text><path fill="none" stroke="var(--s)" stroke-width="20" d="M49 342 C133 328 192 294 270 304 C344 313 391 296 467 268"/><text x="105" y="390" fill="var(--n)" font-family="Arial,sans-serif" font-size="23" font-weight="700" text-anchor="middle">SMA 20</text><path stroke="var(--p)" stroke-width="10" d="M404 87 V226"/><rect x="365" y="114" width="78" height="82" rx="7" fill="var(--p)"/><path fill="none" stroke="var(--a)" stroke-width="15" d="M393 225 C398 279 363 323 302 323"/><path fill="var(--a)" d="M320 287 L270 323 L320 359 Z"/><path fill="none" stroke="var(--n)" stroke-width="10" d="M270 304 C285 275 305 341 320 304 C335 267 355 336 371 295"/></g></svg>
