<svg xmlns="http://www.w3.org/2000/svg" viewBox="0 0 512 512" role="img" aria-labelledby="title description"><title id="title">Bollinger Bands Modified strategy logo for C#</title><desc id="description">A elastic bands physically passes through a broken market boundary.</desc><style>:root{color-scheme:light dark;--p:#ad5145;--pl:#e28e78;--ps:#79372f;--s:#277fa1;--sl:#80bed4;--ss:#1c5b72;--a:#d8a83d;--pos:#3d8c68;--neg:#ba4f4f;--v:#735aa5;--n:#30393f;--pale:#d9cbc2}.language-mark{fill:#17323d;opacity:.07}.python-upper{fill:#2874a6;opacity:.07}.python-lower{fill:#aa8108;opacity:.07}@media(prefers-color-scheme:dark){:root{--p:#ed8270;--pl:#f7b4a2;--ps:#a85146;--s:#59b8d6;--sl:#a2d8e8;--ss:#318198;--a:#f2cb63;--pos:#6ac79c;--neg:#ef7774;--v:#a996da;--n:#eff3f2;--pale:#8a7a70}.language-mark{fill:#edf6f3;opacity:.08}.python-upper{fill:#7ec5ed;opacity:.08}.python-lower{fill:#f1ca50;opacity:.08}}</style><g class="language-mark" aria-hidden="true"><path d="M327 108 A180 210 0 1 0 327 404 L278 348 A110 130 0 1 1 278 164 Z"/><path d="M342 54 L397 54 L367 458 L312 458 Z M432 54 L487 54 L457 458 L402 458 Z M301 172 L499 172 L493 232 L295 232 Z M289 285 L487 285 L481 345 L283 345 Z"/></g><g aria-hidden="true" stroke-linecap="round" stroke-linejoin="round"><path fill="var(--ps)" d="M45 366 H183 V408 H45 Z M329 366 H467 V408 H329 Z M45 416 H196 V458 H45 Z M204 416 H308 V458 H204 Z M316 416 H467 V458 H316 Z"/><path fill="var(--s)" d="M229 81 V371 H194 L256 441 L318 371 H283 V81 Z"/><g transform="translate(282 86) scale(0.680)" ><path fill="none" stroke="var(--pl)" stroke-width="20" d="M8 49 C58 17 108 35 151 57 C177 70 193 60 208 48"/><path fill="none" stroke="var(--sl)" stroke-width="20" d="M8 161 C58 191 108 173 151 151 C177 138 193 148 208 160"/><path fill="none" stroke="var(--p)" stroke-width="12" d="M13 111 C61 74 111 128 202 79"/></g></g></svg>
