<svg xmlns="http://www.w3.org/2000/svg" viewBox="0 0 512 512" role="img" aria-labelledby="title description"><title id="title">Tick Delta Volume strategy logo for C#</title><desc id="description">Opposing buy and sell bars expose net volume delta.</desc><style>:root{color-scheme:light dark;--p:hsl(272 46% 35%);--pl:hsl(272 48% 69%);--ps:hsl(272 50% 23%);--s:hsl(35 58% 43%);--sl:hsl(35 67% 70%);--ss:hsl(35 58% 27%);--a:hsl(109 42% 49%);--pos:hsl(149 45% 39%);--neg:hsl(4 51% 50%);--v:hsl(300 45% 45%);--n:#26383a;--pale:#cbd7d4;}.language-mark{fill:#17323d;opacity:.075}.python-upper{fill:#2874a6;opacity:.075}.python-lower{fill:#aa8108;opacity:.075}@media(prefers-color-scheme:dark){:root{--p:hsl(272 52% 67%);--pl:hsl(272 57% 81%);--ps:hsl(272 43% 49%);--s:hsl(35 67% 66%);--sl:hsl(35 76% 80%);--ss:hsl(35 52% 45%);--a:hsl(109 53% 70%);--pos:hsl(149 48% 61%);--neg:hsl(4 72% 69%);--v:hsl(300 56% 68%);--n:#edf3f1;--pale:#70817c;}.language-mark{fill:#edf6f3;opacity:.09}.python-upper{fill:#7ec5ed;opacity:.09}.python-lower{fill:#f1ca50;opacity:.09}}</style><g class="language-mark" aria-hidden="true"><path d="M327 108 A180 210 0 1 0 327 404 L278 348 A110 130 0 1 1 278 164 Z"/><path d="M342 54 L397 54 L367 458 L312 458 Z M432 54 L487 54 L457 458 L402 458 Z M301 172 L499 172 L493 232 L295 232 Z M289 285 L487 285 L481 345 L283 345 Z"/></g><g aria-hidden="true" stroke-linecap="round" stroke-linejoin="round"><path fill="var(--pale)" d="M48 404 H464 V433 H48 Z"/><path fill="var(--pos)" d="M78 274 H128 V404 H78 Z M150 195 H200 V404 H150 Z M222 124 H272 V404 H222 Z"/><path fill="var(--neg)" d="M294 213 H344 V404 H294 Z M366 306 H416 V404 H366 Z"/><path fill="var(--s)" d="M245 74 H267 V404 H245 Z"/><path fill="none" stroke="var(--n)" stroke-width="13" d="M65 246 L175 163 L247 96 L319 185 L437 284"/></g></svg>
