<svg xmlns="http://www.w3.org/2000/svg" viewBox="0 0 512 512" role="img" aria-labelledby="title description"><title id="title">Bollinger Winner Lite strategy logo for C#</title><desc id="description">A elastic bands physically passes through a broken market boundary.</desc><style>:root{color-scheme:light dark;--p:#8b4f88;--pl:#c89dc3;--ps:#62375f;--s:#498153;--sl:#91c49a;--ss:#315b3a;--a:#d29c37;--pos:#3e8864;--neg:#bd524d;--v:#346d9e;--n:#373640;--pale:#d8cfd8}.language-mark{fill:#17323d;opacity:.07}.python-upper{fill:#2874a6;opacity:.07}.python-lower{fill:#aa8108;opacity:.07}@media(prefers-color-scheme:dark){:root{--p:#c482c0;--pl:#dfb6da;--ps:#8d5790;--s:#73bd82;--sl:#afe0b5;--ss:#4c8b5c;--a:#efc561;--pos:#6cc599;--neg:#ef7c74;--v:#69a9dd;--n:#f3f0f4;--pale:#857989}.language-mark{fill:#edf6f3;opacity:.08}.python-upper{fill:#7ec5ed;opacity:.08}.python-lower{fill:#f1ca50;opacity:.08}}</style><g class="language-mark" aria-hidden="true"><path d="M327 108 A180 210 0 1 0 327 404 L278 348 A110 130 0 1 1 278 164 Z"/><path d="M342 54 L397 54 L367 458 L312 458 Z M432 54 L487 54 L457 458 L402 458 Z M301 172 L499 172 L493 232 L295 232 Z M289 285 L487 285 L481 345 L283 345 Z"/></g><g aria-hidden="true" stroke-linecap="round" stroke-linejoin="round"><path fill="var(--ps)" d="M342 52 H478 V98 H342 Z M374 106 H478 V152 H374 Z M342 160 H478 V206 H342 Z M374 314 H478 V360 H374 Z M342 368 H478 V414 H342 Z M374 422 H478 V468 H374 Z"/><path fill="var(--p)" d="M168 231 H412 V196 L475 256 L412 316 V281 H168 Z"/><g transform="translate(34 167) scale(0.720)" ><path fill="none" stroke="var(--pl)" stroke-width="20" d="M8 49 C58 17 108 35 151 57 C177 70 193 60 208 48"/><path fill="none" stroke="var(--sl)" stroke-width="20" d="M8 161 C58 191 108 173 151 151 C177 138 193 148 208 160"/><path fill="none" stroke="var(--p)" stroke-width="12" d="M13 111 C61 74 111 128 202 79"/></g></g></svg>
