<svg xmlns="http://www.w3.org/2000/svg" viewBox="0 0 512 512" role="img" aria-labelledby="title description"><title id="title">Fibo iSAR strategy logo for C#</title><desc id="description">Two SAR bead trails choose direction across a measured Fibonacci ladder from 50% to 161%.</desc><style>:root{color-scheme:light dark;--p:hsl(213 60% 39%);--pl:hsl(213 68% 72%);--ps:hsl(213 60% 24%);--s:hsl(314 68% 43%);--sl:hsl(314 76% 72%);--ss:hsl(314 68% 27%);--a:hsl(103 56% 49%);--pos:hsl(148 47% 39%);--neg:hsl(5 59% 52%);--v:hsl(106 48% 45%);--n:#243538;--pale:#cbd7d4;}.language-mark{fill:#17323d;opacity:.085}.python-upper{fill:#2874a6;opacity:.085}.python-lower{fill:#aa8108;opacity:.085}@media(prefers-color-scheme:dark){:root{--p:hsl(213 65% 67%);--pl:hsl(213 70% 82%);--ps:hsl(213 56% 49%);--s:hsl(314 74% 66%);--sl:hsl(314 80% 81%);--ss:hsl(314 65% 45%);--a:hsl(103 62% 70%);--pos:hsl(148 51% 62%);--neg:hsl(5 75% 70%);--v:hsl(106 58% 69%);--n:#edf3f1;--pale:#70817c;}.language-mark{fill:#edf6f3;opacity:.105}.python-upper{fill:#7ec5ed;opacity:.105}.python-lower{fill:#f1ca50;opacity:.105}}</style><g class="language-mark" aria-hidden="true"><path d="M327 108 A180 210 0 1 0 327 404 L278 348 A110 130 0 1 1 278 164 Z"/><path d="M342 54 L397 54 L367 458 L312 458 Z M432 54 L487 54 L457 458 L402 458 Z M301 172 L499 172 L493 232 L295 232 Z M289 285 L487 285 L481 345 L283 345 Z"/></g><g aria-hidden="true" stroke-linecap="round" stroke-linejoin="round"><path stroke="var(--pos)" stroke-width="10" d="M94 110 H458"/><text x="83" y="117" fill="var(--n)" font-family="Arial,sans-serif" font-size="18" font-weight="700" text-anchor="end">161</text><path stroke="var(--p)" stroke-width="10" d="M94 198 H458"/><text x="83" y="205" fill="var(--n)" font-family="Arial,sans-serif" font-size="18" font-weight="700" text-anchor="end">100</text><path stroke="var(--a)" stroke-width="10" d="M94 286 H458"/><text x="83" y="293" fill="var(--n)" font-family="Arial,sans-serif" font-size="18" font-weight="700" text-anchor="end">50</text><path stroke="var(--neg)" stroke-width="10" d="M94 374 H458"/><text x="83" y="381" fill="var(--n)" font-family="Arial,sans-serif" font-size="18" font-weight="700" text-anchor="end">0</text><circle cx="123" cy="363" r="10" fill="var(--p)"/><circle cx="166" cy="329" r="10" fill="var(--s)"/><circle cx="209" cy="295" r="10" fill="var(--p)"/><circle cx="252" cy="261" r="10" fill="var(--s)"/><circle cx="295" cy="227" r="10" fill="var(--p)"/><circle cx="338" cy="193" r="10" fill="var(--s)"/><circle cx="381" cy="159" r="10" fill="var(--p)"/><path fill="var(--a)" d="M230 242 H334 L356 264 V310 H230 Z"/><rect x="246" y="260" width="80" height="12" rx="6" fill="var(--pl)"/><text x="293.0" y="292" fill="var(--n)" font-family="Arial,sans-serif" font-size="27" font-weight="700" text-anchor="middle">LIMIT</text><path fill="none" stroke="var(--pos)" stroke-width="14" d="M250 170 H392"/><path fill="var(--pos)" d="M384 141 L426 170 L384 199 Z"/></g></svg>