<svg xmlns="http://www.w3.org/2000/svg" viewBox="0 0 512 512" role="img" aria-labelledby="title description"><title id="title">EliteEFiboTrader strategy logo for C#</title><desc id="description">A Fibonacci-spaced order ladder expands behind a trailing stop hook.</desc><style>:root{color-scheme:light dark;--p:hsl(215 58% 39%);--pl:hsl(215 66% 72%);--ps:hsl(215 58% 24%);--s:hsl(320 64% 43%);--sl:hsl(320 72% 72%);--ss:hsl(320 64% 27%);--a:hsl(87 56% 49%);--pos:hsl(148 47% 39%);--neg:hsl(5 59% 52%);--v:hsl(100 48% 45%);--n:#243538;--pale:#cbd7d4;}.language-mark{fill:#17323d;opacity:.085}.python-upper{fill:#2874a6;opacity:.085}.python-lower{fill:#aa8108;opacity:.085}@media(prefers-color-scheme:dark){:root{--p:hsl(215 63% 67%);--pl:hsl(215 68% 82%);--ps:hsl(215 54% 49%);--s:hsl(320 70% 66%);--sl:hsl(320 76% 81%);--ss:hsl(320 61% 45%);--a:hsl(87 62% 70%);--pos:hsl(148 51% 62%);--neg:hsl(5 75% 70%);--v:hsl(100 58% 69%);--n:#edf3f1;--pale:#70817c;}.language-mark{fill:#edf6f3;opacity:.105}.python-upper{fill:#7ec5ed;opacity:.105}.python-lower{fill:#f1ca50;opacity:.105}}</style><g class="language-mark" aria-hidden="true"><path d="M327 108 A180 210 0 1 0 327 404 L278 348 A110 130 0 1 1 278 164 Z"/><path d="M342 54 L397 54 L367 458 L312 458 Z M432 54 L487 54 L457 458 L402 458 Z M301 172 L499 172 L493 232 L295 232 Z M289 285 L487 285 L481 345 L283 345 Z"/></g><g aria-hidden="true" stroke-linecap="round" stroke-linejoin="round"><path stroke="var(--pos)" stroke-width="10" d="M94 110 H458"/><text x="83" y="117" fill="var(--n)" font-family="Arial,sans-serif" font-size="18" font-weight="700" text-anchor="end">161</text><path stroke="var(--p)" stroke-width="10" d="M94 198 H458"/><text x="83" y="205" fill="var(--n)" font-family="Arial,sans-serif" font-size="18" font-weight="700" text-anchor="end">100</text><path stroke="var(--a)" stroke-width="10" d="M94 286 H458"/><text x="83" y="293" fill="var(--n)" font-family="Arial,sans-serif" font-size="18" font-weight="700" text-anchor="end">50</text><path stroke="var(--neg)" stroke-width="10" d="M94 374 H458"/><text x="83" y="381" fill="var(--n)" font-family="Arial,sans-serif" font-size="18" font-weight="700" text-anchor="end">0</text><path fill="var(--p)" d="M115 342 H168 L185 359 V399 H115 Z"/><rect x="131" y="360" width="24" height="12" rx="6" fill="var(--pl)"/><text x="150.0" y="381" fill="var(--n)" font-family="Arial,sans-serif" font-size="18" font-weight="700" text-anchor="middle">1</text><path fill="var(--p)" d="M144 288 H214 L236 310 V345 H144 Z"/><rect x="160" y="306" width="46" height="12" rx="6" fill="var(--pl)"/><text x="190.0" y="327" fill="var(--n)" font-family="Arial,sans-serif" font-size="23" font-weight="700" text-anchor="middle">2</text><path fill="var(--p)" d="M173 233 H270 L292 255 V290 H173 Z"/><rect x="189" y="251" width="73" height="12" rx="6" fill="var(--pl)"/><text x="232.5" y="272" fill="var(--n)" font-family="Arial,sans-serif" font-size="27" font-weight="700" text-anchor="middle">3</text><path fill="var(--a)" d="M202 166 H331 L353 188 V223 H202 Z"/><rect x="218" y="184" width="105" height="12" rx="6" fill="var(--pl)"/><text x="277.5" y="205" fill="var(--n)" font-family="Arial,sans-serif" font-size="27" font-weight="700" text-anchor="middle">4</text><path fill="none" stroke="var(--s)" stroke-width="14" d="M341 385 C409 344 434 281 433 221"/><path fill="var(--s)" d="M408 239 L438 190 L459 243 Z"/></g></svg>