<svg xmlns="http://www.w3.org/2000/svg" viewBox="0 0 512 512" role="img" aria-labelledby="title description"><title id="title">Bollinger Bands N Positions v2 Strategy logo for Python</title><desc id="description">Price visibly reacts to two solid channel rails.</desc><style>:root{color-scheme:light dark;--p:hsl(238 53% 39%);--pl:hsl(238 61% 72%);--ps:hsl(238 53% 24%);--s:hsl(28 52% 43%);--sl:hsl(28 60% 72%);--ss:hsl(28 52% 27%);--a:hsl(135 62% 48%);--pos:hsl(148 52% 38%);--neg:hsl(5 66% 51%);--n:#243538;--pale:#cbd7d4}.language-mark{fill:#17323d;opacity:.115}.python-upper{fill:#2874a6;opacity:.115}.python-lower{fill:#aa8108;opacity:.115}@media(prefers-color-scheme:dark){:root{--p:hsl(238 58% 67%);--pl:hsl(238 63% 82%);--ps:hsl(238 49% 49%);--s:hsl(28 58% 66%);--sl:hsl(28 64% 81%);--ss:hsl(28 49% 45%);--a:hsl(135 68% 70%);--pos:hsl(148 56% 62%);--neg:hsl(5 78% 70%);--n:#edf3f1;--pale:#70817c}.language-mark{fill:#edf6f3;opacity:.14}.python-upper{fill:#7ec5ed;opacity:.14}.python-lower{fill:#f1ca50;opacity:.14}}</style><g aria-hidden="true"><path class="python-upper" d="M139 53 C139 26 161 4 188 4 H293 C323 4 347 28 347 58 V157 C347 187 323 211 293 211 H212 C183 211 159 235 159 264 V287 H95 C65 287 41 263 41 233 V194 C41 164 65 140 95 140 H139 Z"/><path class="python-lower" d="M139 53 C139 26 161 4 188 4 H293 C323 4 347 28 347 58 V157 C347 187 323 211 293 211 H212 C183 211 159 235 159 264 V287 H95 C65 287 41 263 41 233 V194 C41 164 65 140 95 140 H139 Z" transform="rotate(180 256 256)"/></g><g aria-hidden="true" stroke-linecap="round" stroke-linejoin="round"><path fill="none" stroke="var(--p)" stroke-width="24" d="M48 154 C150 122 255 178 464 135"/><path fill="none" stroke="var(--s)" stroke-width="24" d="M48 374 C166 342 280 397 464 342"/><path fill="none" stroke="var(--pale)" stroke-width="14" d="M65 293 C142 344 215 170 298 237 C352 280 397 243 447 194"/><path fill="var(--a)" d="M385 88 L470 127 L392 179 L404 143 C312 156 236 330 101 377 L82 338 C201 294 273 114 403 111 Z"/><text x="256" y="452" fill="var(--n)" font-family="Arial,sans-serif" font-size="28" font-weight="700" text-anchor="middle">CHANNEL</text></g></svg>
