<svg xmlns="http://www.w3.org/2000/svg" viewBox="0 0 512 512" role="img" aria-labelledby="title description"><title id="title">Double Rsi strategy logo for C#</title><desc id="description">A concrete workbench mechanism centers on a bounded oscillator.</desc><style>:root{color-scheme:light dark;--p:#087f78;--pl:#62cbbb;--ps:#075c58;--s:#cf4d5d;--sl:#f08b7e;--ss:#9f3444;--a:#e3aa35;--pos:#338b69;--neg:#c34d4d;--v:#7459ad;--n:#283942;--pale:#c9d8d7}.language-mark{fill:#17323d;opacity:.07}.python-upper{fill:#2874a6;opacity:.07}.python-lower{fill:#aa8108;opacity:.07}@media(prefers-color-scheme:dark){:root{--p:#3ec2b6;--pl:#8be2d5;--ps:#1b8e87;--s:#f1727b;--sl:#ffaaa0;--ss:#c34a58;--a:#f3c75f;--pos:#6bc69b;--neg:#f17a70;--v:#aa98dd;--n:#eef4f3;--pale:#73858b}.language-mark{fill:#edf6f3;opacity:.08}.python-upper{fill:#7ec5ed;opacity:.08}.python-lower{fill:#f1ca50;opacity:.08}}</style><g class="language-mark" aria-hidden="true"><path d="M327 108 A180 210 0 1 0 327 404 L278 348 A110 130 0 1 1 278 164 Z"/><path d="M342 54 L397 54 L367 458 L312 458 Z M432 54 L487 54 L457 458 L402 458 Z M301 172 L499 172 L493 232 L295 232 Z M289 285 L487 285 L481 345 L283 345 Z"/></g><g aria-hidden="true" stroke-linecap="round" stroke-linejoin="round"><path fill="var(--ps)" d="M43 369 H469 V416 H43 Z M71 97 H102 V369 H71 Z M410 97 H441 V369 H410 Z"/><path fill="var(--a)" d="M61 70 H112 V116 H61 Z M400 70 H451 V116 H400 Z"/><path fill="var(--p)" d="M88 327 H372 V294 L430 348 L372 402 V369 H88 Z"/><g transform="translate(148 119) scale(0.660)" ><path fill="var(--pale)" d="M9 26 H209 V56 H9 Z M9 151 H209 V181 H9 Z"/><path fill="none" stroke="var(--p)" stroke-width="14" d="M20 119 C56 80 78 145 112 103 C147 60 166 124 199 80"/><path fill="var(--a)" d="M89 79 H131 V131 H89 Z"/></g></g></svg>
