<svg xmlns="http://www.w3.org/2000/svg" viewBox="0 0 512 512" role="img" aria-labelledby="title description"><title id="title">Tick Data Detailed strategy logo for Python</title><desc id="description">A literal footprint contains alternating buy and sell volume columns inside the bar.</desc><style>:root{color-scheme:light dark;--p:hsl(120 46% 35%);--pl:hsl(120 48% 69%);--ps:hsl(120 50% 23%);--s:hsl(251 58% 43%);--sl:hsl(251 67% 70%);--ss:hsl(251 58% 27%);--a:hsl(8 42% 49%);--pos:hsl(149 45% 39%);--neg:hsl(4 51% 50%);--v:hsl(148 45% 45%);--n:#26383a;--pale:#cbd7d4;}.language-mark{fill:#17323d;opacity:.075}.python-upper{fill:#2874a6;opacity:.075}.python-lower{fill:#aa8108;opacity:.075}@media(prefers-color-scheme:dark){:root{--p:hsl(120 52% 67%);--pl:hsl(120 57% 81%);--ps:hsl(120 43% 49%);--s:hsl(251 67% 66%);--sl:hsl(251 76% 80%);--ss:hsl(251 52% 45%);--a:hsl(8 53% 70%);--pos:hsl(149 48% 61%);--neg:hsl(4 72% 69%);--v:hsl(148 56% 68%);--n:#edf3f1;--pale:#70817c;}.language-mark{fill:#edf6f3;opacity:.09}.python-upper{fill:#7ec5ed;opacity:.09}.python-lower{fill:#f1ca50;opacity:.09}}</style><g aria-hidden="true"><path class="python-upper" d="M139 53 C139 26 161 4 188 4 H293 C323 4 347 28 347 58 V157 C347 187 323 211 293 211 H212 C183 211 159 235 159 264 V287 H95 C65 287 41 263 41 233 V194 C41 164 65 140 95 140 H139 Z"/><path class="python-lower" d="M139 53 C139 26 161 4 188 4 H293 C323 4 347 28 347 58 V157 C347 187 323 211 293 211 H212 C183 211 159 235 159 264 V287 H95 C65 287 41 263 41 233 V194 C41 164 65 140 95 140 H139 Z" transform="rotate(180 256 256)"/></g><g aria-hidden="true" stroke-linecap="round" stroke-linejoin="round"><path fill="var(--pale)" d="M177 118 C230 73 324 99 349 166 C372 228 337 282 289 326 C248 364 206 422 137 411 C71 400 43 335 65 281 C84 236 117 170 177 118 Z"/><g><circle fill="var(--pos)" cx="179" cy="96" r="30"/><circle fill="var(--neg)" cx="235" cy="69" r="27"/><circle fill="var(--pos)" cx="290" cy="66" r="24"/><circle fill="var(--neg)" cx="340" cy="83" r="21"/><circle fill="var(--pos)" cx="382" cy="111" r="18"/></g><path fill="var(--pos)" d="M105 262 H160 V359 H105 Z M169 208 H224 V359 H169 Z"/><path fill="var(--neg)" d="M233 243 H288 V359 H233 Z M297 176 H352 V359 H297 Z"/><path fill="var(--a)" d="M99 370 H356 V399 H99 Z"/></g></svg>
